<svg xmlns="http://www.w3.org/2000/svg" version="1.1" xmlns:xlink="http://www.w3.org/1999/xlink" xmlns:svgjs="http://svgjs.com/svgjs" width="1000" height="650" preserveAspectRatio="none" viewBox="0 0 1000 650"><g mask="url(&quot;#SvgjsMask1087&quot;)" fill="none"><rect width="1000" height="650" x="0" y="0" fill="#0e2a47"></rect><path d="M0,375.799C78.232,390.709,167.162,407.41,233.771,363.755C300.328,320.134,307.851,228.001,337.923,154.324C366.64,83.967,414.03,17.19,406.069,-58.384C398.003,-134.951,353.57,-205.721,294.76,-255.411C239.929,-301.739,161.056,-294.904,94.453,-321.676C18.176,-352.337,-43.314,-437.003,-124.477,-423.929C-205.081,-410.945,-246.803,-321.829,-298.232,-258.42C-348.003,-197.055,-415.12,-139.197,-419.402,-60.301C-423.627,17.536,-364.316,81.965,-320.194,146.228C-282.668,200.883,-236.633,245.739,-182.753,284.37C-126.251,324.881,-68.295,362.783,0,375.799" fill="#0b2239"></path><path d="M1000 1128.158C1088.236 1111.8890000000001 1125.621 1007.755 1189.283 944.53 1237.839 896.307 1286.844 853.886 1329.804 800.617 1387.041 729.644 1482.088 671.759 1482.7930000000001 580.585 1483.492 490.27 1392.42 429.474 1333.203 361.278 1274.05 293.155 1223.083 210.36900000000003 1137.234 182.62400000000002 1050.649 154.642 954.144 174.171 871.4010000000001 212.03300000000002 794.796 247.087 738.451 313.4 694.4490000000001 385.239 655.28 449.188 648.212 523.6949999999999 635.262 597.559 621.874 673.921 595.648 750.315 617.4 824.7280000000001 640.759 904.639 694.6 971.9780000000001 759.831 1023.711 829.645 1079.078 912.373 1144.314 1000 1128.158" fill="#113255"></path></g><defs><mask id="SvgjsMask1087"><rect width="1000" height="650" fill="#ffffff"></rect></mask></defs></svg>